<?xml version="1.0" encoding="UTF-8" standalone="no"?>
<!DOCTYPE svg PUBLIC "-//W3C//DTD SVG 1.1//EN" "http://www.w3.org/Graphics/SVG/1.1/DTD/svg11.dtd">
<svg width="100%" height="100%" viewBox="0 0 24 24" version="1.1" xmlns="http://www.w3.org/2000/svg" xmlns:xlink="http://www.w3.org/1999/xlink" xml:space="preserve" xmlns:serif="http://www.serif.com/" style="fill-rule:evenodd;clip-rule:evenodd;stroke-linejoin:round;stroke-miterlimit:2;">
    <rect id="Artboard1" x="0" y="0" width="24" height="24" style="fill:none;"/>
    <g id="Artboard11" serif:id="Artboard1">
        <g transform="matrix(0.0191667,0,0,0.0191667,0.247288,0.247288)">
            <path d="M586.804,834.813L528.676,750.218L119.051,1226.37L13.185,1226.37L481.677,681.821L13.185,0L370.513,0L680.322,450.887L1068.21,0L1174.08,0L727.335,519.284L800.736,626.108C799.135,630.703 797.543,635.022 795.854,639.067C791.282,650.016 786.181,658.363 774.397,663.252C762.622,668.142 753.144,665.88 742.18,661.382C734.918,658.402 727.251,654.573 718.726,650.323L672.065,583.579L624.597,515.685L319.8,79.694L157.196,79.694L534.882,619.934L582.35,687.841L608.859,725.759C609.145,728.712 609.939,731.647 611.263,734.433C618.467,749.596 625.264,762.026 629.965,773.474C634.474,784.456 636.768,793.966 631.87,805.775C626.981,817.565 618.637,822.657 607.688,827.23C601.391,829.861 594.433,832.252 586.804,834.813ZM1132.79,1109.36L1213.18,1226.37L931.852,1226.37C935.523,1223.41 938.408,1219.45 940.063,1214.8C945.688,1198.99 949.672,1185.41 954.451,1174.01C958.88,1163.44 963.826,1155.31 974.78,1150.3L1004.58,1150.3C1005.72,1150.73 1006.88,1151.18 1008.05,1151.67C1019.49,1156.37 1031.95,1163.18 1047.21,1170.43C1057.18,1175.17 1069.06,1173.12 1076.86,1165.32L1132.79,1109.36ZM931.285,954.366L849.484,837.357C857.477,834.39 866.123,832.769 875.148,832.769C915.881,832.769 948.905,865.793 948.905,906.525C948.905,924.78 942.272,941.486 931.285,954.366Z"/>
        </g>
        <g transform="matrix(1,0,0,1,-1.23804,-0.636647)">
            <path d="M24,19.032L24,17.486C23.21,17.205 22.711,17.126 22.46,16.52L22.46,16.519C22.208,15.911 22.508,15.499 22.865,14.746L21.772,13.653C21.025,14.008 20.608,14.311 19.999,14.058L19.998,14.058C19.391,13.806 19.312,13.304 19.032,12.518L17.486,12.518C17.207,13.3 17.128,13.806 16.52,14.058L16.519,14.058C15.911,14.311 15.499,14.011 14.746,13.653L13.653,14.746C14.009,15.496 14.311,15.91 14.058,16.519C13.806,17.128 13.3,17.207 12.518,17.486L12.518,19.032C13.299,19.31 13.806,19.39 14.058,19.998C14.312,20.611 14.003,21.034 13.653,21.772L14.746,22.865C15.493,22.51 15.91,22.207 16.519,22.46L16.52,22.46C17.128,22.712 17.207,23.215 17.486,24L19.032,24C19.311,23.217 19.391,22.713 20.002,22.459L20.002,22.459C20.606,22.208 21.017,22.507 21.772,22.866L22.865,21.772C22.509,21.024 22.207,20.608 22.459,19.999C22.711,19.391 23.219,19.31 24,19.032ZM18.259,20.173C17.202,20.173 16.345,19.316 16.345,18.259C16.345,17.202 17.202,16.345 18.259,16.345C19.316,16.345 20.173,17.202 20.173,18.259C20.173,19.316 19.316,20.173 18.259,20.173Z" style="fill-rule:nonzero;"/>
        </g>
    </g>
</svg>
