<?xml version="1.0" encoding="UTF-8" standalone="no"?>
<!DOCTYPE svg PUBLIC "-//W3C//DTD SVG 1.1//EN" "http://www.w3.org/Graphics/SVG/1.1/DTD/svg11.dtd">
<svg width="100%" height="100%" viewBox="0 0 24 24" version="1.1" xmlns="http://www.w3.org/2000/svg" xmlns:xlink="http://www.w3.org/1999/xlink" xml:space="preserve" xmlns:serif="http://www.serif.com/" style="fill-rule:evenodd;clip-rule:evenodd;stroke-linejoin:round;stroke-miterlimit:2;">
    <g transform="matrix(1,0,0,1,-0.518006,-0.308117)">
        <path d="M24,19.032L24,17.486C23.21,17.205 22.711,17.126 22.46,16.52L22.46,16.519C22.208,15.911 22.508,15.499 22.865,14.746L21.772,13.653C21.025,14.008 20.608,14.311 19.999,14.058L19.998,14.058C19.391,13.806 19.312,13.304 19.032,12.518L17.486,12.518C17.207,13.3 17.128,13.806 16.52,14.058L16.519,14.058C15.911,14.311 15.499,14.011 14.746,13.653L13.653,14.746C14.009,15.496 14.311,15.91 14.058,16.519C13.806,17.128 13.3,17.207 12.518,17.486L12.518,19.032C13.299,19.31 13.806,19.39 14.058,19.998C14.312,20.611 14.003,21.034 13.653,21.772L14.746,22.865C15.493,22.51 15.91,22.207 16.519,22.46L16.52,22.46C17.128,22.712 17.207,23.215 17.486,24L19.032,24C19.311,23.217 19.391,22.713 20.002,22.459L20.002,22.459C20.606,22.208 21.017,22.507 21.772,22.866L22.865,21.772C22.509,21.024 22.207,20.608 22.459,19.999C22.711,19.391 23.219,19.31 24,19.032ZM18.259,20.173C17.202,20.173 16.345,19.316 16.345,18.259C16.345,17.202 17.202,16.345 18.259,16.345C19.316,16.345 20.173,17.202 20.173,18.259C20.173,19.316 19.316,20.173 18.259,20.173Z" style="fill-rule:nonzero;"/>
    </g>
    <path d="M12.932,20.744C11.335,21.387 9.535,21.752 7.548,21.752C4.768,21.752 2.179,20.937 -0,19.54C2.612,19.848 5.22,19.123 7.29,17.5C5.134,17.46 3.316,16.037 2.69,14.081C3.462,14.229 4.221,14.185 4.914,13.997C2.546,13.522 0.911,11.388 0.965,9.107C1.628,9.476 2.388,9.697 3.194,9.723C1.002,8.257 0.381,5.362 1.671,3.149C4.1,6.128 7.728,8.088 11.819,8.293C11.101,5.214 13.437,2.248 16.616,2.248C18.032,2.248 19.313,2.846 20.21,3.803C21.332,3.582 22.386,3.172 23.337,2.608C22.97,3.758 22.189,4.723 21.172,5.332C22.168,5.213 23.117,4.949 24,4.557C23.34,5.544 22.505,6.411 21.543,7.106C21.634,9.135 21.256,11.232 20.444,13.184C20.393,13.208 20.342,13.231 20.293,13.251C20.082,13.338 19.899,13.382 19.672,13.288L19.667,13.308L19.671,13.288C19.446,13.195 19.349,13.036 19.261,12.826C19.17,12.608 19.093,12.347 18.985,12.042C18.914,11.843 18.726,11.71 18.514,11.71L16.968,11.71C16.756,11.71 16.568,11.843 16.497,12.042C16.389,12.345 16.313,12.606 16.221,12.825C16.134,13.034 16.036,13.194 15.81,13.288C15.592,13.379 15.467,13.61 15.511,13.842C15.539,13.844 15.568,13.844 15.597,13.843C15.436,13.849 15.282,13.817 15.12,13.76L15.094,13.75L15.057,13.736L15.02,13.722L15.053,13.735L15.087,13.748L15.12,13.76C15.252,13.806 15.38,13.836 15.51,13.842C15.466,13.61 15.591,13.379 15.81,13.288C15.584,13.382 15.403,13.339 15.192,13.252C14.973,13.162 14.735,13.032 14.443,12.893C14.252,12.802 14.024,12.842 13.874,12.991L12.781,14.084C12.632,14.234 12.592,14.461 12.683,14.652C12.821,14.943 12.952,15.181 13.042,15.401C13.128,15.611 13.172,15.793 13.078,16.02C13.078,16.02 13.078,16.02 13.078,16.02C12.984,16.246 12.825,16.343 12.615,16.431C12.396,16.522 12.135,16.599 11.832,16.707C11.633,16.778 11.5,16.966 11.5,17.178L11.5,18.724C11.5,18.936 11.633,19.124 11.833,19.195C12.135,19.303 12.395,19.379 12.614,19.47C12.824,19.558 12.984,19.656 13.078,19.881C13.173,20.11 13.127,20.295 13.04,20.507C13.008,20.583 12.972,20.662 12.932,20.744ZM14.956,13.695L14.976,13.704L14.934,13.686L14.956,13.695ZM14.886,13.664C14.879,13.661 14.872,13.658 14.865,13.655C14.859,13.652 14.852,13.649 14.845,13.646L14.886,13.664Z"/>
</svg>
