<?xml version="1.0" encoding="UTF-8" standalone="no"?>
<!DOCTYPE svg PUBLIC "-//W3C//DTD SVG 1.1//EN" "http://www.w3.org/Graphics/SVG/1.1/DTD/svg11.dtd">
<svg width="100%" height="100%" viewBox="0 0 24 24" version="1.1" xmlns="http://www.w3.org/2000/svg" xmlns:xlink="http://www.w3.org/1999/xlink" xml:space="preserve" xmlns:serif="http://www.serif.com/" style="fill-rule:evenodd;clip-rule:evenodd;stroke-linejoin:round;stroke-miterlimit:2;">
    <g transform="matrix(1.00124,0,0,1.00124,-1.06517,0.0549185)">
        <path d="M11.989,19.94C11.989,21.086 12.574,22.729 13.992,24L7.984,24C9.487,22.896 10,21.169 10,19.94L10,17.174C10,16.528 9.462,16 8.813,16L6.179,16C4.428,16 3,14.583 3,12.826C3,12.259 3.151,11.693 3.455,11.19L4.98,8.657L3.313,7.639L7.444,6.646L8.439,10.771L6.688,9.701L5.17,12.221C4.951,12.584 4.945,13.037 5.154,13.406C5.362,13.774 5.755,14.003 6.177,14.003L8.749,14.003C10.537,14.003 11.987,19.94 11.987,19.94L11.989,19.94ZM10.984,2.57C11.195,2.219 11.582,2 11.991,2C12.401,2 12.789,2.218 13,2.569L14.478,5.016L12.806,6.069L16.952,7.006L17.891,2.868L16.173,3.95L14.716,1.537C14.14,0.583 13.106,0 11.992,0C10.877,0.001 9.843,0.584 9.267,1.539L7.561,4.374L9.269,5.418L10.984,2.57ZM18.047,10.926L20.378,10.913L18.758,8.23L17.064,9.297L18.047,10.926Z" style="fill-rule:nonzero;"/>
    </g>
    <g transform="matrix(1.00124,0,0,1.00124,-1.06517,0.0549185)">
        <path d="M11.989,19.94C11.989,21.086 12.574,22.729 13.992,24L7.984,24C9.487,22.896 10,21.169 10,19.94L10,17.174C10,16.528 9.462,16 8.813,16L6.179,16C4.428,16 3,14.583 3,12.826C3,12.259 3.151,11.693 3.455,11.19L4.98,8.657L3.313,7.639L7.444,6.646L8.439,10.771L6.688,9.701L5.17,12.221C4.951,12.584 4.945,13.037 5.154,13.406C5.362,13.774 5.755,14.003 6.177,14.003L8.749,14.003C10.537,14.003 11.987,15.451 11.987,17.237L11.987,19.94L11.989,19.94ZM10.984,2.57C11.195,2.219 11.582,2 11.991,2C12.401,2 12.789,2.218 13,2.569L14.478,5.016L12.806,6.069L16.952,7.006L17.891,2.868L16.173,3.95L14.716,1.537C14.14,0.583 13.106,0 11.992,0C10.877,0.001 9.843,0.584 9.267,1.539L7.561,4.374L9.269,5.418L10.984,2.57ZM17.043,16L17.409,14.003L15.996,14.003L15.996,12.003L12.992,15.003L15.996,18.003L15.996,16L17.043,16Z" style="fill-rule:nonzero;"/>
    </g>
    <g transform="matrix(0.562592,0,0,0.562592,12.8822,10.5825)">
        <path d="M14.694,1.274L7.607,1.274L5,15L10.991,15L8,24L19,10L12.207,10L14.694,1.274Z" style="fill-rule:nonzero;"/>
    </g>
</svg>
