<?xml version="1.0" encoding="UTF-8" standalone="no"?>
<!DOCTYPE svg PUBLIC "-//W3C//DTD SVG 1.1//EN" "http://www.w3.org/Graphics/SVG/1.1/DTD/svg11.dtd">
<svg width="100%" height="100%" viewBox="0 0 24 24" version="1.1" xmlns="http://www.w3.org/2000/svg" xmlns:xlink="http://www.w3.org/1999/xlink" xml:space="preserve" xmlns:serif="http://www.serif.com/" style="fill-rule:evenodd;clip-rule:evenodd;stroke-linejoin:round;stroke-miterlimit:2;">
    <path d="M6,12C6,14.206 7.794,16 10,16C11.761,16 13.242,14.849 13.775,13.266L15.999,11.975L16,12C16,15.314 13.314,18 10,18C6.686,18 4,15.314 4,12C4,8.686 6.686,6 10,6C11.084,6 12.098,6.292 12.975,6.794L10.765,8.077C10.517,8.029 10.262,8 10,8C7.794,8 6,9.794 6,12ZM10,10C8.895,10 8,10.896 8,12C8,13.104 8.895,14 10,14C11.105,14 12,13.104 12,12L11.998,11.985L15.358,10.035C16.334,9.47 18.062,9.699 19.069,10.194L24,7.331L20.842,5.762L21.011,2.13L16.066,5C15.996,6.121 15.332,7.736 14.361,8.301L10.978,10.265C10.688,10.102 10.357,10 10,10ZM15.638,20.258C16.044,20.007 16.842,19.306 16.842,19.306L15.364,19.334L15.818,17.5C15.818,17.5 15.522,17.88 14.658,18.501C13.345,19.444 11.736,20 10,20C5.589,20 2,16.411 2,12C2,7.589 5.589,4 10,4C11.475,4 12.853,4.408 14.041,5.107C14.375,4.521 14.469,3.563 14.187,2.927C12.912,2.338 11.497,2 10,2C4.477,2 0,6.477 0,12C0,17.523 4.477,22 10,22C12.092,22 13.944,21.307 15.638,20.258Z" style="fill-rule:nonzero;"/>
    <g transform="matrix(0.562592,0,0,0.562592,13.3107,10.283)">
        <path d="M14.694,1.274L7.607,1.274L5,15L10.991,15L8,24L19,10L12.207,10L14.694,1.274Z" style="fill-rule:nonzero;"/>
    </g>
</svg>
