<?xml version="1.0" encoding="UTF-8" standalone="no"?>
<!DOCTYPE svg PUBLIC "-//W3C//DTD SVG 1.1//EN" "http://www.w3.org/Graphics/SVG/1.1/DTD/svg11.dtd">
<svg width="100%" height="100%" viewBox="0 0 24 24" version="1.1" xmlns="http://www.w3.org/2000/svg" xmlns:xlink="http://www.w3.org/1999/xlink" xml:space="preserve" xmlns:serif="http://www.serif.com/" style="fill-rule:evenodd;clip-rule:evenodd;stroke-linecap:round;stroke-linejoin:round;stroke-miterlimit:1.5;">
    <g id="closed">
        <g transform="matrix(1.69841,0,0,1.60534,-12.6737,-12.9632)">
            <path d="M19.695,15.207C19.695,15.207 17.38,17.63 14.528,17.63C11.675,17.63 9.36,15.207 9.36,15.207" style="fill:none;stroke:black;stroke-width:0.61px;"/>
        </g>
        <g transform="matrix(1,0,0,-1,0,24.8213)">
            <g transform="matrix(0.832453,-0.0254949,-0.37361,0.711878,6.68719,1.48736)">
                <path d="M0.509,7.921L3.491,11.125" style="fill:none;stroke:black;stroke-width:1.71px;"/>
            </g>
            <g transform="matrix(0.813389,0.178956,-0.536429,0.598831,11.7891,0.648349)">
                <path d="M0.509,7.921L3.491,11.125" style="fill:none;stroke:black;stroke-width:1.71px;"/>
            </g>
            <g transform="matrix(0.731991,-0.39726,-0.681314,-0.426809,17.0243,11.051)">
                <path d="M0.509,7.921L3.491,11.125" style="fill:none;stroke:black;stroke-width:1.71px;"/>
            </g>
            <g transform="matrix(-0.832453,-0.0254949,0.37361,0.711878,17.3187,1.48736)">
                <path d="M0.509,7.921L3.491,11.125" style="fill:none;stroke:black;stroke-width:1.71px;"/>
            </g>
            <g transform="matrix(-0.813389,0.178956,0.536429,0.598831,12.2169,0.648349)">
                <path d="M0.509,7.921L3.491,11.125" style="fill:none;stroke:black;stroke-width:1.71px;"/>
            </g>
            <g transform="matrix(-0.731991,-0.39726,0.681314,-0.426809,6.98168,11.051)">
                <path d="M0.509,7.921L3.491,11.125" style="fill:none;stroke:black;stroke-width:1.71px;"/>
            </g>
        </g>
    </g>
</svg>
