<?xml version="1.0" encoding="UTF-8" standalone="no"?><!DOCTYPE svg PUBLIC "-//W3C//DTD SVG 1.1//EN" "http://www.w3.org/Graphics/SVG/1.1/DTD/svg11.dtd"><svg width="100%" height="100%" viewBox="0 0 24 24" version="1.1" xmlns="http://www.w3.org/2000/svg" xmlns:xlink="http://www.w3.org/1999/xlink" xml:space="preserve" xmlns:serif="http://www.serif.com/" style="fill-rule:evenodd;clip-rule:evenodd;stroke-linejoin:round;stroke-miterlimit:2;"><path d="M14.483,20c-1.95,1.098 -4.274,1.752 -6.935,1.752c-2.78,0 -5.369,-0.815 -7.548,-2.212c2.612,0.308 5.22,-0.417 7.29,-2.04c-2.156,-0.04 -3.974,-1.463 -4.6,-3.419c0.772,0.148 1.531,0.104 2.224,-0.084c-2.368,-0.475 -4.003,-2.609 -3.949,-4.89c0.663,0.369 1.423,0.59 2.229,0.616c-2.192,-1.466 -2.813,-4.361 -1.523,-6.574c2.429,2.979 6.057,4.939 10.148,5.144c-0.718,-3.079 1.618,-6.045 4.797,-6.045c1.416,0 2.697,0.598 3.594,1.555c1.122,-0.221 2.176,-0.631 3.127,-1.195c-0.367,1.15 -1.148,2.115 -2.165,2.724c0.996,-0.119 1.945,-0.383 2.828,-0.775c-0.66,0.987 -1.495,1.854 -2.457,2.549c0.107,2.369 -0.428,4.832 -1.543,7.047c-0,-0.407 -0,-0.71 -0,-0.71c-0,-0.654 -0.531,-1.185 -1.186,-1.185l-1.37,-0c-0.655,-0 -1.186,0.531 -1.186,1.185l0,2.815l-2.815,0c-0.654,0 -1.185,0.531 -1.185,1.186l-0,1.37c-0,0.655 0.531,1.186 1.185,1.186l1.04,-0Z" style="fill-rule:nonzero;"/><path d="M16.867,16.867l0,-3.05c0,-0.349 0.283,-0.631 0.631,-0.631l1.262,-0c0.348,-0 0.631,0.282 0.631,0.631l-0,3.05l3.05,0c0.348,0 0.631,0.283 0.631,0.631l0,1.262c0,0.348 -0.283,0.631 -0.631,0.631l-3.05,-0l-0,3.05c-0,0.348 -0.283,0.631 -0.631,0.631l-1.262,0c-0.348,0 -0.631,-0.283 -0.631,-0.631l0,-3.05l-3.05,-0c-0.349,-0 -0.631,-0.283 -0.631,-0.631l-0,-1.262c-0,-0.348 0.282,-0.631 0.631,-0.631l3.05,0Z"/></svg>