<svg width="60" height="70" viewBox="0 0 60 70" fill="none" xmlns="http://www.w3.org/2000/svg">
<path d="M45.4313 40.1691C41.6804 44.7054 37.4368 49.3672 32.8568 53.9472C28.2768 58.5273 23.6154 62.7727 19.08 66.5223C19.3859 66.5332 19.6913 66.5454 20 66.5454C26.7486 66.5379 33.2187 63.8536 37.9907 59.0816C42.7627 54.3096 45.4469 47.8395 45.4545 41.0909C45.4545 40.7818 45.4422 40.4754 45.4313 40.1691Z" fill="white"/>
<path d="M56 5.09305C52.4736 1.56532 46.0155 2.81623 36.2564 8.91623C32.6627 11.1945 29.1964 13.6679 25.8732 16.3253C21.6473 15.3195 17.2342 15.4127 13.0545 16.5959C8.87477 17.7791 5.0677 20.0129 1.99606 23.0846C-1.07558 26.1562 -3.30944 29.9633 -4.49266 34.143C-5.67587 38.3227 -5.76901 42.7358 -4.7632 46.9617C-7.42073 50.2848 -9.89414 53.7511 -12.1723 57.3449C-18.2728 67.1044 -19.5246 73.5626 -16 77.0908C-15.3271 77.7465 -14.5271 78.2576 -13.6494 78.5928C-12.7717 78.928 -11.8346 79.0801 -10.8959 79.0399C-7.27184 79.0399 -2.4232 77.1221 3.74362 73.2671C11.7404 68.2671 21.1659 60.4944 30.2836 51.3781C39.4014 42.2617 47.1745 32.8349 52.1727 24.8381C58.2727 15.0771 59.5246 8.61896 56 5.09305ZM44.9273 22.6653C40.1941 29.8394 33.1686 38.2108 25.1441 46.2331C17.1195 54.2553 8.75044 61.2831 1.57634 66.0162C-5.4832 70.6735 -9.2873 71.7294 -10.6859 71.7785C-10.6368 70.3808 -9.58093 66.5758 -4.92366 59.5162C-3.89139 57.9517 -2.74184 56.3276 -1.50729 54.6653C-0.167158 56.7828 1.47554 58.6929 3.36862 60.3349C10.1815 55.2698 16.6012 49.6963 22.5727 43.6621C28.6067 37.691 34.1802 31.2717 39.2454 24.4594C37.6034 22.5654 35.6928 20.9221 33.5745 19.5817C35.2368 18.3449 36.8609 17.1976 38.4254 16.1653C45.485 11.508 49.2891 10.4521 50.6877 10.403C50.6386 11.8012 49.5827 15.6058 44.9255 22.6653H44.9273Z" fill="white"/>
<path d="M-12.7274 6.54546C-10.3171 6.54822 -8.00644 7.5069 -6.30216 9.21118C-4.59789 10.9155 -3.63921 13.2262 -3.63644 15.6364C-3.63644 16.1186 -3.44488 16.581 -3.10391 16.922C-2.76293 17.263 -2.30047 17.4545 -1.81826 17.4545C-1.33605 17.4545 -0.873586 17.263 -0.532611 16.922C-0.191635 16.581 -7.72476e-05 16.1186 -7.72476e-05 15.6364C0.00268936 13.2262 0.961367 10.9155 2.66564 9.21118C4.36992 7.5069 6.68062 6.54822 9.09083 6.54546C9.57304 6.54546 10.0355 6.3539 10.3765 6.01292C10.7175 5.67195 10.909 5.20949 10.909 4.72727C10.909 4.24506 10.7175 3.7826 10.3765 3.44163C10.0355 3.10065 9.57304 2.90909 9.09083 2.90909C6.68062 2.90633 4.36992 1.94765 2.66564 0.24337C0.961367 -1.46091 0.00268936 -3.77161 -7.72476e-05 -6.18182C-7.72476e-05 -6.66403 -0.191635 -7.12649 -0.532611 -7.46747C-0.873586 -7.80844 -1.33605 -8 -1.81826 -8C-2.30047 -8 -2.76293 -7.80844 -3.10391 -7.46747C-3.44488 -7.12649 -3.63644 -6.66403 -3.63644 -6.18182C-3.63921 -3.77161 -4.59789 -1.46091 -6.30216 0.24337C-8.00644 1.94765 -10.3171 2.90633 -12.7274 2.90909C-13.2096 2.90909 -13.672 3.10065 -14.013 3.44163C-14.354 3.7826 -14.5455 4.24506 -14.5455 4.72727C-14.5455 5.20949 -14.354 5.67195 -14.013 6.01292C-13.672 6.3539 -13.2096 6.54546 -12.7274 6.54546Z" fill="white"/>
<path d="M45.4546 72.0002C47.4629 72.0002 49.091 70.3722 49.091 68.3638C49.091 66.3555 47.4629 64.7275 45.4546 64.7275C43.4463 64.7275 41.8182 66.3555 41.8182 68.3638C41.8182 70.3722 43.4463 72.0002 45.4546 72.0002Z" fill="white"/>
<path d="M56.3637 39.2727C58.372 39.2727 60 37.6447 60 35.6364C60 33.6281 58.372 32 56.3637 32C54.3554 32 52.7273 33.6281 52.7273 35.6364C52.7273 37.6447 54.3554 39.2727 56.3637 39.2727Z" fill="white"/>
</svg>
