<?xml version="1.0" encoding="UTF-8"?>
<!DOCTYPE svg PUBLIC "-//W3C//DTD SVG 1.1//EN" "http://www.w3.org/Graphics/SVG/1.1/DTD/svg11.dtd">
<svg xmlns="http://www.w3.org/2000/svg" version="1.1" width="25px" height="25px" style="shape-rendering:geometricPrecision; text-rendering:geometricPrecision; image-rendering:optimizeQuality; fill-rule:evenodd; clip-rule:evenodd" xmlns:xlink="http://www.w3.org/1999/xlink">
<g><path style="opacity:0.986" fill="#000000" d="M 265.5,4.5 C 351.765,2.04815 419.265,36.0481 468,106.5C 514.901,183.461 518.568,262.461 479,343.5C 473.17,354.497 466.837,365.164 460,375.5C 452.864,385.603 445.364,395.436 437.5,405C 451.363,418.529 464.863,432.362 478,446.5C 481.22,452.803 480.053,458.303 474.5,463C 420.833,463.667 367.167,463.667 313.5,463C 311,461.833 309.167,460 308,457.5C 307.333,402.833 307.333,348.167 308,293.5C 311.83,287.676 316.997,285.842 323.5,288C 337.113,301.613 350.779,315.279 364.5,329C 365.167,329.667 365.833,329.667 366.5,329C 404.751,280.144 416.918,225.311 403,164.5C 382.893,94.3925 337.393,50.8925 266.5,34C 256.188,32.4869 245.855,31.1535 235.5,30C 229.975,27.0812 228.142,22.5812 230,16.5C 231.031,13.4605 232.865,10.9605 235.5,9C 245.61,7.24723 255.61,5.74723 265.5,4.5 Z"/></g>
<g><path style="opacity:0.986" fill="#000000" d="M 36.5,47.5 C 90.1677,47.3333 143.834,47.5 197.5,48C 200,49.1667 201.833,51 203,53.5C 203.667,108.167 203.667,162.833 203,217.5C 199.364,223.177 194.197,225.01 187.5,223C 173.887,209.387 160.221,195.721 146.5,182C 145.551,181.383 144.718,181.549 144,182.5C 101.691,238.025 91.6906,299.025 114,365.5C 136.365,422.103 176.865,458.603 235.5,475C 249.485,477.663 263.485,479.997 277.5,482C 282.952,488.215 282.619,494.215 276.5,500C 188.244,516.437 115.077,490.604 57,422.5C 7.97516,359.045 -6.35818,288.378 14,210.5C 26.7728,171.455 46.6061,136.622 73.5,106C 60,92.5 46.5,79 33,65.5C 28.8098,58.2836 29.9765,52.2836 36.5,47.5 Z"/></g>
</svg>
