<svg version="1.1" xmlns="http://www.w3.org/2000/svg" width="32" height="50" viewBox="0 0 32 32">
<title>astral</title>
<path d="M28.5 11c0.276 0 0.5 0.225 0.5 0.5s-0.224 0.5-0.5 0.5-0.5-0.225-0.5-0.5 0.224-0.5 0.5-0.5zM22.5 2.5c1.103 0 2 0.897 2 2s-0.897 2-2 2-2-0.897-2-2 0.897-2 2-2zM16 1.5c1.234 0 2.476 1.008 3.509 2.83-0.003 0.056-0.009 0.112-0.009 0.17 0 0.939 0.434 1.779 1.113 2.329 0.894 2.591 1.387 5.838 1.387 9.171 0 1.13-0.064 2.25-0.173 3.341-0.364 0.085-0.739 0.163-1.122 0.233 0.192-1.142 0.294-2.338 0.294-3.574 0-5.888-2.197-10.5-5-10.5s-5 4.612-5 10.5c0 1.245 0.104 2.45 0.3 3.6-0.386-0.069-0.761-0.148-1.124-0.234-0.111-1.101-0.175-2.229-0.175-3.366 0-2.999 0.387-5.878 1.117-8.333 0.236-0.327 0.38-0.725 0.382-1.158 1.146-3.138 2.825-5.009 4.501-5.009zM12.875 10.15c2.045-0.191 4.206-0.191 6.25 0 0.114 0.334 0.221 0.682 0.316 1.056-2.231-0.267-4.652-0.268-6.882-0.001 0.095-0.373 0.202-0.722 0.316-1.055zM20 16c0 0.552-0.448 1-1 1s-1-0.448-1-1 0.448-1 1-1 1 0.448 1 1zM8.5 6.5c0-0.551 0.448-1 1-1s1 0.449 1 1-0.448 1-1 1-1-0.449-1-1zM1.5 16c0-2.197 3.155-4.296 7.919-5.328-0.062 0.383-0.117 0.773-0.165 1.166-3.341 0.919-5.253 2.425-5.253 4.161 0 0.374 0.1 0.738 0.277 1.091-0.688 0.172-1.282 0.58-1.692 1.135-0.718-0.715-1.085-1.462-1.085-2.226zM5 22c-1.103 0-2-0.897-2-2s0.897-2 2-2 2 0.897 2 2-0.897 2-2 2zM7.988 19.759c2.175 0.793 5.027 1.241 8.012 1.241 6.729 0 12-2.197 12-5 0-1.736-1.913-3.242-5.256-4.162-0.049-0.395-0.104-0.784-0.166-1.169 1.766 0.382 3.349 0.919 4.625 1.569 0.255 0.446 0.727 0.751 1.275 0.759 0.951 0.667 2.022 1.702 2.022 3.002 0 3.253-6.64 6-14.5 6-2.935 0-5.736-0.371-8.15-1.068 0.096-0.294 0.15-0.607 0.15-0.932 0-0.081-0.006-0.161-0.012-0.241zM22.5 27.5c0 0.552-0.448 1-1 1s-1-0.448-1-1 0.448-1 1-1 1 0.448 1 1zM20.358 25.862c-0.517 0.362-0.858 0.96-0.858 1.638 0 0.054 0.012 0.105 0.016 0.157-1.035 1.831-2.279 2.843-3.516 2.843-2.196 0-4.295-3.154-5.328-7.92 0.487 0.079 0.982 0.148 1.486 0.205 0.937 2.364 2.326 3.715 3.842 3.715s2.904-1.349 3.84-3.709c0.506-0.056 1-0.123 1.483-0.201-0.258 1.186-0.579 2.285-0.966 3.271z" fill="#ffffff"></path>
</svg>
