<!-- Generated by IcoMoon.io -->
<svg version="1.1" xmlns="http://www.w3.org/2000/svg" width="32" height="32" viewBox="0 0 32 32">
<title>galactic</title>
<path d="M25.325 17.662c-1.375 1.663-2.931 3.373-4.611 5.052s-3.389 3.236-5.052 4.611c0.112 0.004 0.224 0.009 0.337 0.009 5.152-0.006 9.327-4.181 9.333-9.333v-0.001c0-0.113-0.005-0.226-0.009-0.338z" fill="#ffffff"></path>
<path d="M29.2 4.801c-1.293-1.293-3.661-0.835-7.239 1.402-1.459 0.929-2.701 1.824-3.89 2.781l0.083-0.064c-0.649-0.161-1.393-0.253-2.16-0.253-5.151 0-9.327 4.176-9.327 9.327 0 0.766 0.092 1.511 0.267 2.224l-0.013-0.064c-0.893 1.107-1.787 2.348-2.614 3.637l-0.102 0.17c-2.237 3.579-2.696 5.947-1.404 7.24 0.455 0.443 1.077 0.717 1.763 0.717 0.038 0 0.076-0.001 0.114-0.003l-0.005 0c1.329 0 3.107-0.703 5.368-2.117 2.932-1.833 6.388-4.683 9.731-8.026s6.193-6.799 8.026-9.731c2.237-3.579 2.696-5.947 1.403-7.24zM25.14 11.244c-1.736 2.63-4.311 5.7-7.254 8.642s-6.011 5.518-8.642 7.254c-2.588 1.708-3.983 2.095-4.496 2.113 0.018-0.512 0.405-1.908 2.113-4.496 0.378-0.574 0.8-1.169 1.253-1.779 0.508 0.796 1.1 1.48 1.776 2.069l0.011 0.010c2.598-1.943 4.897-3.947 7.036-6.108l0.005-0.005c2.167-2.145 4.171-4.443 5.999-6.881l0.115-0.16c-0.599-0.688-1.283-1.28-2.042-1.766l-0.038-0.023c0.61-0.454 1.205-0.874 1.779-1.253 2.588-1.708 3.983-2.095 4.496-2.113-0.018 0.513-0.405 1.908-2.113 4.496z" fill="#ffffff"></path>
<path d="M4 5.333c1.84 0.002 3.331 1.493 3.333 3.333v0c0 0.368 0.298 0.667 0.667 0.667s0.667-0.298 0.667-0.667v0c0.002-1.84 1.493-3.331 3.333-3.333h0c0.368 0 0.667-0.298 0.667-0.667s-0.298-0.667-0.667-0.667v0c-1.84-0.002-3.331-1.493-3.333-3.333v-0c0-0.368-0.298-0.667-0.667-0.667s-0.667 0.298-0.667 0.667v0c-0.002 1.84-1.493 3.331-3.333 3.333h-0c-0.368 0-0.667 0.298-0.667 0.667s0.298 0.667 0.667 0.667v0z" fill="#ffffff"></path>
<path d="M26.667 28c0 0.736-0.597 1.333-1.333 1.333s-1.333-0.597-1.333-1.333c0-0.736 0.597-1.333 1.333-1.333s1.333 0.597 1.333 1.333z" fill="#ffffff"></path>
<path d="M4 17.333c0 0.736-0.597 1.333-1.333 1.333s-1.333-0.597-1.333-1.333c0-0.736 0.597-1.333 1.333-1.333s1.333 0.597 1.333 1.333z" fill="#ffffff"></path>
<path d="M30.667 16c0 0.736-0.597 1.333-1.333 1.333s-1.333-0.597-1.333-1.333c0-0.736 0.597-1.333 1.333-1.333s1.333 0.597 1.333 1.333z" fill="#ffffff"></path>
</svg>
