<!-- Generated by IcoMoon.io -->
<svg version="1.1" xmlns="http://www.w3.org/2000/svg" width="32" height="32" viewBox="0 0 32 32">
<title>solar</title>
<path fill="white" stroke-linejoin="round" stroke-linecap="round" stroke-miterlimit="10" stroke-width="0.9375" stroke="#000" d="M23.125 16c0-3.935-3.19-7.125-7.125-7.125s-7.125 3.19-7.125 7.125c0 3.935 3.19 7.125 7.125 7.125s7.125-3.19 7.125-7.125z"></path>
<path fill="white" stroke-linejoin="round" stroke-linecap="round" stroke-miterlimit="10" stroke-width="0.9375" stroke="#000" d="M17.512 8.982c-0.454-0.672-0.719-1.483-0.719-2.355 0-0.722 0.181-1.402 0.501-1.996 0.237-0.427 0.372-0.919 0.372-1.442 0-1.095-0.593-2.051-1.474-2.565 0.125 0.329 0.194 0.685 0.194 1.058 0 0.955-0.451 1.804-1.151 2.347l-0.006 0.006c-0.914 0.773-1.494 1.927-1.494 3.218 0 0.648 0.146 1.262 0.408 1.81"></path>
<path fill="white" stroke-linejoin="round" stroke-linecap="round" stroke-miterlimit="10" stroke-width="0.9375" stroke="#000" d="M14.488 23.018c0.454 0.672 0.719 1.483 0.719 2.355 0 0.722-0.181 1.402-0.501 1.996-0.237 0.427-0.372 0.919-0.372 1.442 0 1.095 0.593 2.051 1.474 2.565-0.125-0.328-0.194-0.685-0.194-1.058 0-0.955 0.451-1.804 1.151-2.347l0.006-0.006c0.914-0.773 1.494-1.927 1.494-3.218 0-0.648-0.146-1.262-0.408-1.81"></path>
<path fill="white" stroke-linejoin="round" stroke-linecap="round" stroke-miterlimit="10" stroke-width="0.9375" stroke="#000" d="M8.982 14.488c-0.672 0.454-1.483 0.719-2.355 0.719-0.722 0-1.402-0.181-1.996-0.501-0.427-0.237-0.919-0.372-1.442-0.372-1.095 0-2.051 0.593-2.565 1.474 0.329-0.125 0.685-0.194 1.058-0.194 0.955 0 1.804 0.451 2.347 1.151l0.006 0.006c0.773 0.914 1.927 1.494 3.218 1.494 0.648 0 1.262-0.146 1.81-0.408"></path>
<path fill="white" stroke-linejoin="round" stroke-linecap="round" stroke-miterlimit="10" stroke-width="0.9375" stroke="#000" d="M30.167 17.338c0.504-0.259 0.924-0.659 1.208-1.147-0.328 0.125-0.685 0.194-1.058 0.194-0.955 0-1.804-0.451-2.347-1.151l-0.006-0.006c-0.773-0.914-1.927-1.494-3.218-1.494-0.648 0-1.262 0.146-1.81 0.408"></path>
<path fill="white" stroke-linejoin="round" stroke-linecap="round" stroke-miterlimit="10" stroke-width="0.9375" stroke="#000" d="M23.018 17.512c0.467-0.316 1.001-0.54 1.576-0.647"></path>
<path fill="white" stroke-linejoin="round" stroke-linecap="round" stroke-miterlimit="10" stroke-width="0.9375" stroke="#000" d="M12.107 9.968c-0.796-0.154-1.557-0.54-2.174-1.156-0.51-0.51-0.864-1.119-1.057-1.765-0.134-0.47-0.387-0.913-0.756-1.282-0.774-0.774-1.869-1.031-2.856-0.771 0.321 0.144 0.622 0.347 0.885 0.611 0.675 0.675 0.957 1.595 0.845 2.474l0 0.008c-0.1 1.193 0.306 2.42 1.219 3.332 0.458 0.458 0.996 0.789 1.568 0.992"></path>
<path fill="white" stroke-linejoin="round" stroke-linecap="round" stroke-miterlimit="10" stroke-width="0.9375" stroke="#000" d="M19.893 22.032c0.796 0.154 1.557 0.54 2.174 1.157 0.51 0.51 0.863 1.119 1.057 1.765 0.134 0.47 0.387 0.913 0.756 1.282 0.774 0.774 1.869 1.031 2.856 0.771-0.321-0.144-0.622-0.347-0.885-0.611-0.675-0.675-0.957-1.595-0.845-2.474l-0-0.008c0.1-1.193-0.306-2.42-1.219-3.332-0.458-0.458-0.996-0.789-1.568-0.992"></path>
<path fill="white" stroke-linejoin="round" stroke-linecap="round" stroke-miterlimit="10" stroke-width="0.9375" stroke="#000" d="M9.968 19.893c-0.154 0.796-0.54 1.557-1.156 2.174-0.51 0.51-1.119 0.863-1.765 1.057-0.47 0.134-0.913 0.387-1.282 0.756-0.774 0.774-1.031 1.869-0.771 2.856 0.144-0.321 0.347-0.622 0.611-0.885 0.675-0.675 1.595-0.957 2.474-0.845l0.008-0c1.193 0.1 2.42-0.306 3.332-1.219 0.458-0.458 0.789-0.996 0.992-1.568"></path>
<path fill="white" stroke-linejoin="round" stroke-linecap="round" stroke-miterlimit="10" stroke-width="0.9375" stroke="#000" d="M22.032 12.107c0.154-0.796 0.54-1.557 1.157-2.174 0.51-0.51 1.119-0.864 1.765-1.057 0.47-0.134 0.913-0.387 1.282-0.756 0.774-0.774 1.031-1.869 0.771-2.856-0.144 0.321-0.347 0.622-0.611 0.885-0.675 0.675-1.595 0.957-2.474 0.845l-0.008 0c-1.193-0.1-2.42 0.306-3.332 1.219-0.458 0.458-0.789 0.996-0.992 1.568"></path>
<path fill="white" stroke-linejoin="round" stroke-linecap="round" stroke-miterlimit="10" stroke-width="0.9375" stroke="#000" d="M16.265 23.12c-1.829-0.068-3.637-0.8-5.034-2.196-2.348-2.348-2.348-6.156 0-8.504 1.879-1.879 4.924-1.879 6.803 0 1.503 1.503 1.503 3.94 0 5.442-1.202 1.202-3.152 1.202-4.354 0-0.962-0.962-0.962-2.521 0-3.483"></path>
<path fill="white" stroke-linejoin="round" stroke-linecap="round" stroke-miterlimit="10" stroke-width="0.9375" stroke="#000" d="M27.368 17.294v0"></path>
</svg>
