<?xml version="1.0" encoding="UTF-8" standalone="no"?><!DOCTYPE svg PUBLIC "-//W3C//DTD SVG 1.1//EN" "http://www.w3.org/Graphics/SVG/1.1/DTD/svg11.dtd"><svg width="100%" height="100%" viewBox="0 0 782 295" version="1.1" xmlns="http://www.w3.org/2000/svg" xmlns:xlink="http://www.w3.org/1999/xlink" xml:space="preserve" xmlns:serif="http://www.serif.com/" style="fill-rule:evenodd;clip-rule:evenodd;stroke-linejoin:round;stroke-miterlimit:2;"><rect id="Quantum-Logo---Horizontal---white" serif:id="Quantum Logo - Horizontal - white" x="0.104" y="0.203" width="781.305" height="294.027" style="fill:none;"/><g id="Quantum-Logo---Horizontal---white1" serif:id="Quantum Logo - Horizontal - white"><g id="txt-expanded" serif:id="txt expanded"><g><path d="M101.23,189.911l28.409,-0l0,-6.953l-28.409,-0l0,6.953Zm-20.26,-43.287c0,-11.214 9.046,-20.335 20.26,-20.335c11.214,0 20.335,9.121 20.335,20.335c0,11.214 -9.121,20.26 -20.335,20.26c-11.214,0 -20.26,-9.046 -20.26,-20.26Zm-8.149,0c0,15.7 12.71,28.409 28.409,28.409c15.7,0 28.409,-12.709 28.409,-28.409c0,-15.7 -12.709,-28.409 -28.409,-28.409c-15.699,0 -28.409,12.709 -28.409,28.409Z" style="fill:#fff;fill-rule:nonzero;"/><path d="M147.059,145.428l-0,5.084c-0,5.158 0.224,9.719 3.364,14.13c4.112,6.055 11.065,8.747 18.167,8.747c10.99,-0 20.709,-6.804 21.456,-18.167c0.075,-1.047 0.15,-2.617 0.15,-4.71l-0,-32.222l-8.224,-0l0,35.212c0,7.402 -6.28,12.635 -13.382,12.635c-6.953,-0 -13.233,-5.607 -13.233,-12.635l0,-8.074l-8.298,0Zm-0,-20.185l8.373,-0l-0,-6.953l-8.373,-0l-0,6.953Z" style="fill:#fff;fill-rule:nonzero;"/><path d="M226.006,119.187l-18.391,29.904l9.719,0l14.204,-22.278l29.755,46.576l9.794,-0l-34.016,-54.202l-11.065,-0Z" style="fill:#fff;fill-rule:nonzero;"/><path d="M288.506,119.187l36.708,54.202l8.672,-0l-0,-54.202l-8.373,-0l-0,40.595l-26.69,-40.595l-10.317,-0Z" style="fill:#fff;fill-rule:nonzero;"/><path d="M379.34,173.389l0,-47.249l19.588,-0l-0,-6.953l-27.961,-0l0,54.202l8.373,-0Zm-19.736,-47.249l-0,-6.953l-8.299,-0l0,6.953l8.299,-0Z" style="fill:#fff;fill-rule:nonzero;"/><path d="M416.347,145.428l0,5.084c0,5.158 0.224,9.719 3.364,14.13c4.112,6.055 11.065,8.747 18.167,8.747c10.99,-0 20.709,-6.804 21.457,-18.167c0.074,-1.047 0.149,-2.617 0.149,-4.71l0,-32.222l-8.224,-0l0,35.212c0,7.402 -6.28,12.635 -13.382,12.635c-6.953,-0 -13.232,-5.607 -13.232,-12.635l-0,-8.074l-8.299,0Zm0,-20.185l8.373,-0l0,-6.953l-8.373,-0l0,6.953Z" style="fill:#fff;fill-rule:nonzero;"/><path d="M506.957,152.456l19.961,-22.429l0,43.362l8.374,-0l-0,-54.202l-8.149,-0l-20.186,22.428l-20.185,-22.428l-9.869,-0l30.054,33.269Z" style="fill:#fff;fill-rule:nonzero;"/></g><g><path d="M387.644,198.055c-1.185,-0.687 -2.506,-1.29 -3.963,-1.81c-1.456,-0.52 -2.641,-0.78 -3.557,-0.78c-0.894,-0 -1.341,0.322 -1.341,0.967c-0,0.499 0.286,0.884 0.858,1.155c0.572,0.27 1.482,0.572 2.73,0.905c1.56,0.436 2.855,0.873 3.885,1.31c1.029,0.437 1.929,1.129 2.699,2.075c0.769,0.947 1.154,2.189 1.154,3.729c0,1.581 -0.411,2.907 -1.232,3.978c-0.822,1.072 -1.93,1.867 -3.323,2.387c-1.394,0.52 -2.944,0.78 -4.65,0.78c-1.934,0 -3.884,-0.317 -5.85,-0.951c-1.966,-0.635 -3.667,-1.503 -5.102,-2.606l2.684,-5.46c1.102,0.957 2.485,1.773 4.15,2.449c1.664,0.676 3.058,1.014 4.181,1.014c0.541,0 0.967,-0.099 1.279,-0.296c0.312,-0.198 0.468,-0.505 0.468,-0.921c0,-0.499 -0.296,-0.889 -0.889,-1.17c-0.593,-0.281 -1.524,-0.577 -2.793,-0.889c-1.539,-0.395 -2.824,-0.806 -3.853,-1.233c-1.03,-0.426 -1.919,-1.087 -2.668,-1.981c-0.749,-0.895 -1.124,-2.091 -1.124,-3.588c0,-1.457 0.385,-2.731 1.155,-3.823c0.77,-1.092 1.862,-1.929 3.276,-2.512c1.415,-0.582 3.058,-0.873 4.93,-0.873c1.706,-0 3.407,0.239 5.102,0.717c1.695,0.479 3.167,1.113 4.415,1.904l-2.621,5.523Z" style="fill:#fff;fill-rule:nonzero;"/><path d="M414.042,190.004c2.288,0 4.348,0.489 6.178,1.467c1.831,0.978 3.261,2.33 4.291,4.056c1.029,1.727 1.544,3.672 1.544,5.835c0,2.184 -0.515,4.15 -1.544,5.898c-1.03,1.747 -2.46,3.115 -4.291,4.103c-1.83,0.988 -3.89,1.482 -6.178,1.482c-2.288,-0 -4.348,-0.494 -6.178,-1.482c-1.831,-0.988 -3.261,-2.356 -4.291,-4.103c-1.029,-1.748 -1.544,-3.714 -1.544,-5.898c-0,-2.184 0.515,-4.139 1.544,-5.866c1.03,-1.727 2.46,-3.073 4.291,-4.041c1.83,-0.967 3.89,-1.451 6.178,-1.451Zm0.094,6.022c-0.832,0 -1.607,0.235 -2.325,0.703c-0.718,0.468 -1.29,1.107 -1.716,1.919c-0.427,0.811 -0.64,1.726 -0.64,2.745c0,1.02 0.213,1.94 0.64,2.762c0.426,0.822 0.998,1.472 1.716,1.95c0.718,0.479 1.493,0.718 2.325,0.718c0.832,-0 1.591,-0.234 2.277,-0.702c0.687,-0.468 1.228,-1.118 1.623,-1.951c0.395,-0.832 0.593,-1.757 0.593,-2.777c-0,-1.019 -0.198,-1.939 -0.593,-2.761c-0.395,-0.822 -0.936,-1.461 -1.623,-1.919c-0.686,-0.458 -1.445,-0.687 -2.277,-0.687Z" style="fill:#fff;fill-rule:nonzero;"/><path d="M455.043,199.022c-0.645,-0.895 -1.42,-1.617 -2.325,-2.169c-0.905,-0.551 -1.784,-0.827 -2.636,-0.827c-0.853,0 -1.628,0.224 -2.325,0.671c-0.697,0.448 -1.238,1.066 -1.623,1.857c-0.384,0.79 -0.577,1.685 -0.577,2.683c0,0.999 0.193,1.899 0.577,2.699c0.385,0.801 0.926,1.431 1.623,1.888c0.697,0.458 1.472,0.687 2.325,0.687c0.79,-0 1.638,-0.234 2.543,-0.702c0.904,-0.468 1.711,-1.087 2.418,-1.857l4.181,4.462c-1.227,1.352 -2.699,2.429 -4.415,3.23c-1.716,0.8 -3.417,1.201 -5.102,1.201c-2.205,-0 -4.186,-0.494 -5.944,-1.482c-1.758,-0.988 -3.136,-2.361 -4.134,-4.119c-0.999,-1.758 -1.498,-3.729 -1.498,-5.913c-0,-2.163 0.509,-4.103 1.529,-5.819c1.019,-1.717 2.428,-3.063 4.228,-4.041c1.799,-0.978 3.833,-1.467 6.1,-1.467c1.664,0 3.339,0.37 5.024,1.108c1.685,0.738 3.089,1.721 4.212,2.949l-4.181,4.961Z" style="fill:#fff;fill-rule:nonzero;"/><rect x="471.83" y="190.472" width="7.239" height="21.873" style="fill:#fff;fill-rule:nonzero;"/><path d="M509.305,212.346l-1.092,-3.089l-8.207,-0l-1.123,3.089l-7.426,-0l9.236,-21.874l7.426,0l8.893,21.874l-7.707,-0Zm-7.426,-8.269l4.555,-0l-2.246,-6.397l-2.309,6.397Z" style="fill:#fff;fill-rule:nonzero;"/><path d="M529.4,190.472l7.239,0l-0,15.851l9.111,0l0,6.023l-16.35,-0l-0,-21.874Z" style="fill:#fff;fill-rule:nonzero;"/></g></g><g id="graphic"><g id="lines"><path d="M626.942,128.952c2.427,7.897 5.526,16.349 9.24,25.002c10.733,25.011 23.78,45.141 33.943,53.544c2.003,1.655 3.868,2.837 5.574,3.444c1.348,0.48 2.558,0.597 3.596,0.152c1.038,-0.446 1.786,-1.403 2.367,-2.711c0.735,-1.655 1.165,-3.821 1.344,-6.413c0.257,-3.708 -0.003,-8.225 -0.75,-13.358c1.408,-0.069 2.694,-0.607 3.705,-1.461c0.906,5.843 1.231,10.956 0.945,15.09c-0.464,6.688 -2.682,10.991 -6.07,12.445c-3.387,1.454 -8.035,0.096 -13.201,-4.175c-10.457,-8.646 -24.002,-29.282 -35.045,-55.015c-3.819,-8.899 -6.99,-17.594 -9.465,-25.722c0.305,0.058 0.62,0.089 0.942,0.089c1.07,-0 2.062,-0.337 2.875,-0.911Zm35.771,-7.868c2.915,5.579 5.764,11.564 8.463,17.853c5.741,13.379 10.018,26.299 12.67,37.524c-0.599,-0.193 -1.238,-0.296 -1.901,-0.296c-0.727,-0 -1.426,0.125 -2.075,0.354c-2.618,-10.804 -6.776,-23.2 -12.286,-36.04c-2.528,-5.89 -5.184,-11.51 -7.9,-16.768c1.202,-0.63 2.239,-1.533 3.029,-2.627Zm-11.603,-12.479c-6.116,-9.754 -12.183,-17.299 -17.47,-21.67c-2.002,-1.655 -3.868,-2.837 -5.573,-3.444c-1.349,-0.48 -2.558,-0.597 -3.596,-0.152l-0,0c-1.038,0.446 -1.787,1.403 -2.368,2.711c-0.735,1.655 -1.164,3.821 -1.344,6.413c-0.471,6.808 0.801,16.339 3.626,27.417c-0.105,-0.007 -0.211,-0.01 -0.318,-0.01c-1.293,-0 -2.472,0.492 -3.359,1.299c-3.005,-11.726 -4.344,-21.819 -3.848,-28.977c0.463,-6.688 2.682,-10.991 6.069,-12.445l0,0c3.388,-1.454 8.035,-0.097 13.202,4.175c5.65,4.672 12.201,12.843 18.773,23.428c-1.382,0.12 -2.672,0.563 -3.794,1.255Z" style="fill:#fff;"/><path d="M643.673,193.48c1.969,0.327 3.987,0.497 6.044,0.497c10.117,-0 19.3,-4.111 26.051,-10.787c0.183,1.427 0.85,2.703 1.83,3.659c-7.368,6.857 -17.154,11.037 -27.881,11.037c-2.518,-0 -4.983,-0.23 -7.379,-0.672c0.654,-1.134 1.114,-2.394 1.335,-3.734Zm-21.292,-6.133c-8.653,-7.776 -14.12,-19.175 -14.12,-31.878c-0,-11.161 4.221,-21.316 11.112,-28.888c0.468,1.279 1.444,2.314 2.683,2.86c-6.139,6.859 -9.886,16.001 -9.886,26.028c-0,11.317 4.772,21.506 12.369,28.557c-0.904,0.963 -1.639,2.086 -2.158,3.321Zm41.966,-71.572c15.664,6.053 26.826,21.544 26.826,39.694c0,7.929 -2.13,15.35 -5.836,21.701c-0.976,-0.636 -2.141,-1.005 -3.392,-1.005c-0.196,-0 -0.391,0.009 -0.583,0.027c3.736,-5.984 5.903,-13.097 5.903,-20.723c-0,-16.237 -9.826,-30.154 -23.719,-35.807c0.516,-1.111 0.805,-2.349 0.805,-3.655c-0,-0.077 -0.001,-0.155 -0.004,-0.232Zm-16.882,-2.66c-0.32,0.905 -0.494,1.879 -0.494,2.892c-0,0.356 0.021,0.707 0.063,1.052c-6.696,0.486 -12.906,2.774 -18.173,6.393c-0.388,-1.314 -1.302,-2.403 -2.497,-3.024c6.075,-4.247 13.304,-6.885 21.101,-7.313Z" style="fill:#fff;"/><path d="M622.429,187.235c-4.641,-4.994 -7.482,-11.687 -7.482,-19.038c-0,-15.443 12.538,-27.982 27.982,-27.982c15.443,0 27.981,12.539 27.981,27.982c0,15.444 -12.538,27.982 -27.981,27.982l-0.064,-0.001l0.026,-0.058l0.012,-0.027l0.012,-0.028l0.003,-0.007l0.009,-0.023l0.012,-0.027l0.003,-0.006l0.002,-0.006l0.009,-0.02l0.011,-0.026l0.003,-0.009l0.004,-0.008l0.007,-0.017l0.009,-0.023l0.006,-0.013l0.004,-0.01l0.006,-0.014l0.008,-0.021l0.006,-0.016l0.005,-0.012l0.005,-0.012l0.007,-0.018l0.008,-0.02l0.005,-0.013l0.004,-0.009l0.006,-0.016l0.01,-0.025l0.005,-0.013l0.003,-0.007l0.005,-0.013l0.012,-0.031l0.005,-0.013l0.001,-0.004l0.004,-0.01l0.015,-0.041l0.004,-0.009l0,-0.002c0.024,-0.063 0.047,-0.126 0.069,-0.189l0.018,-0.052l0.004,-0.011l0.001,-0.003l0.003,-0.009l0.013,-0.037l0.004,-0.013l0.002,-0.005l0.003,-0.011l0.011,-0.03l0.005,-0.017l0.003,-0.007l0.003,-0.01l0.008,-0.025l0.007,-0.022l0.003,-0.008l0.003,-0.009l0.007,-0.021l0.008,-0.026l0.003,-0.009l0.002,-0.007l0.006,-0.018l0.009,-0.031l0.004,-0.01l0.001,-0.005l0.005,-0.014l0.011,-0.037l0.003,-0.009l0.001,-0.003l0.003,-0.011l0.014,-0.048l0.002,-0.005c0.019,-0.065 0.038,-0.13 0.056,-0.196l0.015,-0.053l0.003,-0.011l0.001,-0.004l0.003,-0.011l0.009,-0.035l0.004,-0.014l0.002,-0.006l0.003,-0.012l0.007,-0.029l0.005,-0.017l0.002,-0.009l0.003,-0.011l0.006,-0.024l0.005,-0.021l0.003,-0.011l0.003,-0.01l0.005,-0.02l0.006,-0.024l0.003,-0.013l0.002,-0.008l0.004,-0.016l0.007,-0.029l0.003,-0.014l0.001,-0.006l0.003,-0.013l0.008,-0.034l0.004,-0.014l0.001,-0.005l0.002,-0.008l0.009,-0.043l0.003,-0.012l0,-0.002c0.01,-0.044 0.02,-0.088 0.029,-0.132l0.013,-0.059l0.001,-0.006l0.001,-0.004l0.003,-0.018l0.007,-0.035l0.002,-0.008l0.001,-0.007l0.004,-0.019l0.006,-0.028l0.002,-0.012l0.002,-0.01l0.003,-0.018l0.005,-0.023l0.002,-0.014l0.003,-0.013l0.003,-0.017l0.003,-0.018l0.003,-0.017l0.003,-0.016l0.003,-0.015l0.002,-0.015l0.004,-0.02l0.003,-0.019l0.002,-0.013l0.002,-0.011l0.004,-0.023l0.004,-0.022l0.001,-0.01l0.002,-0.008l0.004,-0.025l0.004,-0.026l0.001,-0.008l0.001,-0.005l0.004,-0.025l0.005,-0.031l0.001,-0.007l0.003,-0.023l0.006,-0.039l0.01,-0.07l0.006,-0.04l0.002,-0.018l0.001,-0.003l0.001,-0.008l0.004,-0.035l0.003,-0.018l0,-0.005l0.002,-0.012l0.004,-0.031l0.002,-0.016l0,-0.007l0.002,-0.016l0.004,-0.028l0.001,-0.013l0.001,-0.009l0.003,-0.02l0.002,-0.024l0.002,-0.011l0.001,-0.011l0.002,-0.024l0.003,-0.021l0.001,-0.008l0.001,-0.012l0.003,-0.029l0.002,-0.018l0,-0.006l0.001,-0.011l0.004,-0.035l0.001,-0.016l0,-0.002l0.001,-0.008c0.014,-0.148 0.025,-0.297 0.033,-0.446c12.88,-0.462 23.195,-11.065 23.195,-24.057c0,-13.286 -10.786,-24.073 -24.072,-24.073c-13.286,0 -24.073,10.787 -24.073,24.073c-0,5.991 2.193,11.473 5.819,15.687c-0.928,0.954 -1.686,2.073 -2.227,3.309l-0.019,0.042Z" style="fill:#fff;"/><path d="M643.658,193.57c1.98,0.268 4.004,0.407 6.059,0.407c9.947,-0 19.155,-3.25 26.673,-8.769c0.611,1.202 1.601,2.181 2.813,2.776c-8.26,6.225 -18.458,9.902 -29.486,9.902c-2.527,-0 -5.011,-0.193 -7.44,-0.566c0.671,-1.136 1.147,-2.402 1.381,-3.75Zm-21.852,-4.446c-13.203,-9.168 -21.889,-24.65 -21.889,-42.201c0,-28.14 22.328,-50.963 49.8,-50.963c27.472,0 49.8,22.823 49.8,50.963c0,12.581 -4.463,24.1 -11.856,32.994c-0.54,-1.243 -1.473,-2.276 -2.642,-2.941c6.613,-8.157 10.589,-18.635 10.589,-30.053c0,-25.957 -20.55,-47.054 -45.891,-47.054c-25.341,0 -45.891,21.097 -45.891,47.054c0,15.927 7.737,30.025 19.57,38.54c-0.736,1.098 -1.281,2.335 -1.59,3.661Z" style="fill:#fff;"/><path d="M622.429,187.235c-4.641,-4.994 -7.482,-11.687 -7.482,-19.038c-0,-15.443 12.538,-27.982 27.982,-27.982c15.443,0 27.981,12.539 27.981,27.982c0,15.444 -12.538,27.982 -27.981,27.982l-0.064,-0.001c0.538,-1.21 0.867,-2.533 0.941,-3.924c12.88,-0.462 23.195,-11.065 23.195,-24.057c0,-13.286 -10.786,-24.073 -24.072,-24.073c-13.286,0 -24.073,10.787 -24.073,24.073c-0,5.991 2.193,11.473 5.819,15.687c-0.938,0.965 -1.704,2.098 -2.246,3.351Z" style="fill:#fff;"/></g><g id="circles"><circle cx="624.067" cy="124.866" r="2.39" style="fill:#fff;"/><circle cx="681.945" cy="182.392" r="3.622" style="fill:#fff;"/><circle cx="655.661" cy="116.007" r="6.084" style="fill:#fff;"/><circle cx="632.669" cy="191.656" r="8.546" style="fill:#fff;"/></g></g></g></svg>