<svg width="164" height="170" viewBox="0 0 164 170" fill="none" xmlns="http://www.w3.org/2000/svg">
<path d="M72.9941 95.8977C81.4381 97.4061 94.1931 97.6364 104.966 93.7345C114.333 82.9849 120.904 73.9524 127.584 63.9768C121.283 63.0076 114.258 60.6543 108.299 57.0178C116.294 57.3504 126.577 56.4853 134.955 52.7854C146.938 39.9747 158.379 17.4143 163.582 3.07702C142.959 -2.3653 122.019 0.807815 106.973 7.49538C101.395 12.3089 94.7769 25.5877 92.3947 32.8891C91.4648 26.968 91.7151 17.9136 94.8442 11.0761C83.0763 14.9737 72.4469 20.1093 60.0376 27.8178C52.3308 39.4124 48.6033 54.0383 47.4524 62.4504C45.5479 57.1119 43.5497 47.1312 46.0202 37.3389C23.2329 53.8674 4.95006 78.333 11.3212 111.091C28.0582 98.0529 46.6561 86.3407 57.5406 81.4435C29.9406 105.352 2.01181 138.869 -20.0712 169.938L-0.73703 167.714C10.3358 152.963 20.1715 140.326 28.4813 131.585C51.0439 140.804 75.9701 124.03 94.2204 105.313C88.3603 105.561 78.1369 100.887 72.9941 95.8977Z" fill="white" fill-opacity="0.3"/>
</svg>
